<svg width="12" height="12" viewBox="0 0 12 12" fill="none" xmlns="http://www.w3.org/2000/svg">
<path d="M11.8829 0.15145C11.8407 0.105136 11.7896 0.0678475 11.7326 0.0418397C11.6757 0.015832 11.614 0.00164456 11.5514 0.000134678C11.4888 -0.0013752 11.4265 0.00982381 11.3684 0.0330551C11.3102 0.0562864 11.2574 0.0910675 11.2131 0.135297L10.8562 0.490392C10.813 0.533665 10.7887 0.592339 10.7887 0.653517C10.7887 0.714694 10.813 0.773368 10.8562 0.816641L11.1833 1.14318C11.2048 1.16472 11.2303 1.18182 11.2583 1.19348C11.2864 1.20515 11.3165 1.21115 11.3469 1.21115C11.3773 1.21115 11.4074 1.20515 11.4355 1.19348C11.4635 1.18182 11.489 1.16472 11.5105 1.14318L11.8583 0.797026C12.0343 0.621353 12.0507 0.3352 11.8829 0.15145ZM10.1348 1.21154L4.92749 6.40961C4.89592 6.44106 4.87297 6.4801 4.86086 6.52298L4.61999 7.24038C4.61422 7.25984 4.61381 7.28051 4.61881 7.30019C4.6238 7.31986 4.63402 7.33783 4.64838 7.35219C4.66273 7.36654 4.6807 7.37676 4.70038 7.38175C4.72005 7.38675 4.74072 7.38634 4.76018 7.38057L5.47701 7.13971C5.51989 7.12759 5.55893 7.10464 5.59037 7.07307L10.7884 1.8652C10.8365 1.81659 10.8635 1.75098 10.8635 1.6826C10.8635 1.61423 10.8365 1.54861 10.7884 1.50001L10.5014 1.21154C10.4528 1.16302 10.3868 1.13576 10.3181 1.13576C10.2494 1.13576 10.1835 1.16302 10.1348 1.21154Z" fill="#CE1261" fill-opacity="0.92"/>
<path d="M9.75979 4.20173L6.24374 7.72471C6.10784 7.86093 5.94082 7.96202 5.7571 8.01922L5.00999 8.26932C4.83268 8.31939 4.64523 8.32128 4.46695 8.27479C4.28867 8.2283 4.12601 8.13511 3.99573 8.00484C3.86545 7.87456 3.77226 7.71189 3.72577 7.53361C3.67928 7.35533 3.68117 7.16788 3.73124 6.99057L3.98134 6.24346C4.03838 6.0598 4.13926 5.89278 4.27528 5.75682L7.79825 2.2402C7.83055 2.20794 7.85255 2.16683 7.86148 2.12207C7.87041 2.07731 7.86586 2.0309 7.84841 1.98872C7.83097 1.94655 7.80141 1.91049 7.76347 1.88511C7.72553 1.85974 7.68092 1.84618 7.63527 1.84616H1.61538C1.18696 1.84616 0.776077 2.01635 0.473134 2.31929C0.170192 2.62224 0 3.03311 0 3.46154V10.3846C0 10.813 0.170192 11.2239 0.473134 11.5269C0.776077 11.8298 1.18696 12 1.61538 12H8.53844C8.96687 12 9.37775 11.8298 9.68069 11.5269C9.98363 11.2239 10.1538 10.813 10.1538 10.3846V4.36471C10.1538 4.31907 10.1402 4.27446 10.1149 4.23652C10.0895 4.19858 10.0534 4.16902 10.0113 4.15157C9.96908 4.13413 9.92268 4.12958 9.87792 4.13851C9.83315 4.14744 9.79204 4.16944 9.75979 4.20173Z" fill="#CE1261" fill-opacity="0.92"/>
</svg>
